<svg width="1200" height="720" viewBox="0 0 1200 720" fill="none" xmlns="http://www.w3.org/2000/svg">
  <defs>
    <linearGradient id="bg3" x1="0" y1="0" x2="1200" y2="720" gradientUnits="userSpaceOnUse">
      <stop stop-color="#0D1423"/>
      <stop offset="1" stop-color="#161B2E"/>
    </linearGradient>
    <linearGradient id="left" x1="200" y1="220" x2="580" y2="420" gradientUnits="userSpaceOnUse">
      <stop stop-color="#334155"/>
      <stop offset="1" stop-color="#475569"/>
    </linearGradient>
    <linearGradient id="right" x1="640" y1="190" x2="1030" y2="410" gradientUnits="userSpaceOnUse">
      <stop stop-color="#1D4ED8"/>
      <stop offset="1" stop-color="#2563EB"/>
    </linearGradient>
  </defs>
  <rect width="1200" height="720" rx="28" fill="url(#bg3)"/>
  <rect x="64" y="64" width="1072" height="592" rx="20" fill="#141C2F" stroke="#283856"/>
  <rect x="118" y="118" width="320" height="26" rx="8" fill="#223450"/>
  <rect x="118" y="164" width="210" height="14" rx="7" fill="#2E4365"/>
  <rect x="168" y="244" width="420" height="94" rx="22" fill="url(#left)"/>
  <rect x="168" y="362" width="320" height="84" rx="20" fill="url(#left)"/>
  <rect x="612" y="214" width="420" height="102" rx="22" fill="url(#right)"/>
  <rect x="712" y="344" width="320" height="84" rx="20" fill="url(#right)"/>
  <rect x="562" y="504" width="470" height="74" rx="18" fill="#1F2C46"/>
  <circle cx="632" cy="541" r="20" fill="#4F46E5"/>
  <rect x="668" y="529" width="286" height="10" rx="5" fill="#3B4F74"/>
  <rect x="668" y="548" width="198" height="10" rx="5" fill="#3B4F74"/>
</svg>
