<svg width="1200" height="720" viewBox="0 0 1200 720" fill="none" xmlns="http://www.w3.org/2000/svg">
  <defs>
    <linearGradient id="bg2" x1="0" y1="0" x2="1200" y2="720" gradientUnits="userSpaceOnUse">
      <stop stop-color="#0C1424"/>
      <stop offset="1" stop-color="#101B2E"/>
    </linearGradient>
  </defs>
  <rect width="1200" height="720" rx="28" fill="url(#bg2)"/>
  <rect x="64" y="64" width="1072" height="592" rx="20" fill="#131D31" stroke="#253652"/>
  <path d="M202 520L420 420L628 492L822 328L1018 446" stroke="#3B82F6" stroke-width="6" stroke-linecap="round"/>
  <path d="M202 520L420 420L822 328" stroke="#22D3EE" stroke-width="10" stroke-linecap="round" stroke-dasharray="1 20"/>
  <path d="M420 420L628 492L1018 446" stroke="#A78BFA" stroke-width="5" stroke-linecap="round"/>
  <circle cx="202" cy="520" r="24" fill="#0EA5E9"/>
  <circle cx="420" cy="420" r="24" fill="#38BDF8"/>
  <circle cx="628" cy="492" r="24" fill="#60A5FA"/>
  <circle cx="822" cy="328" r="24" fill="#818CF8"/>
  <circle cx="1018" cy="446" r="24" fill="#A78BFA"/>
  <rect x="112" y="112" width="360" height="26" rx="8" fill="#21314D"/>
  <rect x="112" y="158" width="220" height="14" rx="7" fill="#2C3E61"/>
  <rect x="828" y="104" width="244" height="168" rx="14" fill="#111A2C" stroke="#2A3A57"/>
  <rect x="854" y="142" width="104" height="16" rx="8" fill="#31476C"/>
  <rect x="854" y="176" width="190" height="12" rx="6" fill="#2A3D5D"/>
  <rect x="854" y="204" width="150" height="12" rx="6" fill="#2A3D5D"/>
</svg>
